<svg width="998" height="138" viewBox="0 0 998 138" fill="none" xmlns="http://www.w3.org/2000/svg">
<!-- Composited from game-over-green.svg (front layer, #4DD5BC, own drop-shadow
     filter) and game-over-white.svg (backing layer, offset so it peeks out
     along the top/left of each letter, matching the Figma reference). The
     raw path coordinates of the same glyph differ by exactly (15, 8) between
     the two source files (measured across all 8 letters), but that number is
     an artifact of each file's own canvas crop, not the actual inter-layer
     offset: reproducing it 1:1 made white nearly disappear under green. The
     true visible offset (~4px left, ~2px top) was instead calibrated against
     a rendered Figma reference screenshot, corresponding to translate(11, 6)
     here (i.e. (15, 8) minus the residual (4, 2) gap). See
     docs/figma-reference for the source layers. -->
<g transform="translate(11,6)">
  <path d="M898.815 119.245C899.728 119.245 900.575 118.333 901.357 116.509C902.269 114.684 902.725 111.687 902.725 107.516V41.4429C902.725 37.2726 902.269 34.3403 901.357 32.6461C900.575 30.8216 899.728 29.8442 898.815 29.7139C904.55 29.7139 910.414 29.3229 916.409 28.541C922.404 27.6287 927.095 26.7165 930.484 25.8042V33.6235L930.093 36.9468L930.484 37.3377C931.396 35.9042 932.829 34.3403 934.784 32.6461C936.869 30.8216 939.476 29.2577 942.604 27.9545C945.862 26.521 949.641 25.8042 953.942 25.8042C960.328 25.8042 965.997 26.7165 970.949 28.541C975.901 30.2352 979.42 31.9945 981.505 33.819L975.64 60.0138V65.8783C973.686 63.1416 971.014 60.3396 967.626 57.4725C964.368 54.6054 960.718 52.1945 956.678 50.2396C952.769 48.2848 948.729 47.3074 944.559 47.3074C939.867 47.3074 936.348 49.0016 934.002 52.39C931.657 55.7783 930.484 61.1216 930.484 68.4196V107.516C930.484 111.687 930.875 114.684 931.657 116.509C932.569 118.333 933.481 119.245 934.393 119.245H898.815Z" fill="white"/>
  <path d="M842.436 121.2C832.141 121.2 823.539 120.158 816.632 118.072C809.856 115.857 804.447 112.729 800.407 108.689C796.367 104.519 793.5 99.5015 791.806 93.637C790.112 87.7725 789.265 81.1261 789.265 73.6977C789.265 58.9712 793.37 47.3074 801.58 38.7061C809.79 30.1048 822.366 25.8042 839.308 25.8042C849.213 25.8042 857.228 27.1726 863.353 29.9093C869.608 32.6461 874.365 36.2951 877.623 40.8564C880.881 45.4177 883.097 50.5003 884.27 56.1042C885.573 61.5777 886.225 67.1164 886.225 72.7203V81.908C886.225 81.517 884.4 81.1261 880.751 80.7351C877.232 80.2138 871.237 79.9531 862.766 79.9531H817.414C817.414 87.1209 819.565 92.5293 823.865 96.1783C828.296 99.697 835.464 101.456 845.368 101.456C853.709 101.456 861.137 100.479 867.654 98.5241C874.3 96.4389 879.122 94.4841 882.119 92.6596V98.5241L884.074 113.381C881.598 115.075 876.841 116.834 869.804 118.659C862.766 120.353 853.644 121.2 842.436 121.2ZM824.647 63.1416H858.466C858.466 60.2745 857.814 57.4725 856.511 54.7358C855.338 51.999 853.383 49.7835 850.646 48.0893C847.91 46.2648 844.13 45.3526 839.308 45.3526C834.486 45.3526 830.577 46.0693 827.579 47.5029C824.712 48.9364 822.562 50.6958 821.128 52.7809C819.825 54.8661 819.174 57.0164 819.174 59.2319C819.174 60.5351 819.565 61.5125 820.347 62.1641C821.128 62.8158 822.562 63.1416 824.647 63.1416Z" fill="white"/>
  <path d="M713.893 119.245C714.805 119.245 715.391 118.398 715.652 116.704C716.043 114.879 715.456 111.817 713.893 107.516C713.371 105.822 712.198 102.824 710.374 98.5238C708.68 94.2232 706.66 89.2709 704.314 83.6671C701.968 78.0632 699.557 72.3942 697.081 66.66C694.735 60.7955 692.52 55.5175 690.435 50.8259C688.48 46.0039 686.981 42.3549 685.938 39.8788C684.114 35.4478 682.224 32.3201 680.269 30.4956C678.445 28.671 677.011 27.7588 675.969 27.7588H715.652C714.74 27.7588 714.153 28.671 713.893 30.4956C713.632 32.3201 714.218 35.4478 715.652 39.8788C716.434 42.0943 717.542 45.4826 718.975 50.0439C720.539 54.6052 722.298 59.8181 724.253 65.6826C726.208 71.4168 728.163 77.2813 730.118 83.2761C732.203 89.271 734.093 94.8097 735.787 99.8922H735.982C737.676 94.8097 739.371 89.7922 741.065 84.84C742.759 79.7574 744.453 74.74 746.147 69.7878C747.842 64.7052 749.536 59.6878 751.23 54.7355C752.924 49.653 754.618 44.5704 756.313 39.4878C757.746 35.3175 758.333 32.3201 758.072 30.4956C757.811 28.671 757.225 27.7588 756.313 27.7588H795.214C794.301 27.7588 792.998 28.671 791.304 30.4956C789.61 32.1898 787.851 35.122 786.026 39.2923C785.114 41.6381 783.68 45.1568 781.725 49.8484C779.771 54.4097 777.555 59.5574 775.079 65.2916C772.733 70.8955 770.322 76.4994 767.846 82.1032C765.5 87.7071 763.415 92.7897 761.591 97.3509C759.766 101.912 758.463 105.301 757.681 107.516C756.247 111.947 755.661 115.01 755.922 116.704C756.182 118.398 756.769 119.245 757.681 119.245H713.893Z" fill="white"/>
  <path d="M631.419 121.2C618.386 121.2 608.156 119.115 600.728 114.945C593.43 110.774 588.282 105.105 585.284 97.9376C582.417 90.7699 580.984 82.6899 580.984 73.6977C580.984 64.5751 582.483 56.43 585.48 49.2622C588.608 42.0945 593.821 36.4255 601.119 32.2552C608.417 27.9545 618.517 25.8042 631.419 25.8042C644.321 25.8042 654.421 27.9545 661.719 32.2552C669.017 36.4255 674.164 42.0945 677.162 49.2622C680.29 56.43 681.853 64.5751 681.853 73.6977C681.853 82.6899 680.355 90.7699 677.357 97.9376C674.49 105.105 669.408 110.774 662.11 114.945C654.811 119.115 644.581 121.2 631.419 121.2ZM631.419 101.456C636.892 101.456 641.258 100.674 644.516 99.1105C647.904 97.4164 650.315 94.5493 651.749 90.5093C653.313 86.4693 654.095 80.8654 654.095 73.6977C654.095 66.5299 653.313 60.9261 651.749 56.8861C650.315 52.7158 647.904 49.7835 644.516 48.0893C641.258 46.2648 636.892 45.3526 631.419 45.3526C625.945 45.3526 621.514 46.2648 618.126 48.0893C614.868 49.9138 612.457 52.9112 610.893 57.0816C609.459 61.2519 608.743 66.8557 608.743 73.8932C608.743 80.8002 609.459 86.2738 610.893 90.3138C612.457 94.3538 614.868 97.2209 618.126 98.915C621.514 100.609 625.945 101.456 631.419 101.456Z" fill="white"/>
  <path d="M484.289 121.2C473.994 121.2 465.392 120.158 458.485 118.072C451.709 115.857 446.3 112.729 442.26 108.689C438.22 104.519 435.353 99.5015 433.659 93.637C431.965 87.7725 431.118 81.1261 431.118 73.6977C431.118 58.9712 435.223 47.3074 443.433 38.7061C451.643 30.1048 464.22 25.8042 481.161 25.8042C491.066 25.8042 499.081 27.1726 505.206 29.9093C511.461 32.6461 516.218 36.2951 519.476 40.8564C522.734 45.4177 524.95 50.5003 526.123 56.1042C527.426 61.5777 528.078 67.1164 528.078 72.7203V81.908C528.078 81.517 526.253 81.1261 522.604 80.7351C519.085 80.2138 513.09 79.9531 504.619 79.9531H459.267C459.267 87.1209 461.418 92.5293 465.718 96.1783C470.149 99.697 477.317 101.456 487.221 101.456C495.562 101.456 502.99 100.479 509.507 98.5241C516.153 96.4389 520.975 94.4841 523.972 92.6596V98.5241L525.927 113.381C523.451 115.075 518.694 116.834 511.657 118.659C504.619 120.353 495.497 121.2 484.289 121.2ZM466.5 63.1416H500.319C500.319 60.2745 499.667 57.4725 498.364 54.7358C497.191 51.999 495.236 49.7835 492.5 48.0893C489.763 46.2648 485.983 45.3526 481.161 45.3526C476.34 45.3526 472.43 46.0693 469.432 47.5029C466.565 48.9364 464.415 50.6958 462.981 52.7809C461.678 54.8661 461.027 57.0164 461.027 59.2319C461.027 60.5351 461.418 61.5125 462.2 62.1641C462.981 62.8158 464.415 63.1416 466.5 63.1416Z" fill="white"/>
  <path d="M256.98 119.245C257.893 119.245 258.74 118.333 259.522 116.509C260.434 114.684 260.89 111.687 260.89 107.516V41.4429C260.89 37.2726 260.434 34.3403 259.522 32.6461C258.74 30.8216 257.893 29.8442 256.98 29.7139C262.715 29.7139 268.579 29.3229 274.574 28.541C280.569 27.6287 285.26 26.7165 288.649 25.8042V37.7287L288.258 40.27L288.649 40.661C289.04 39.7487 290.278 38.1197 292.363 35.7739C294.448 33.4281 297.446 31.2126 301.355 29.1274C305.265 26.9119 310.087 25.8042 315.821 25.8042C327.941 25.8042 337.194 29.2577 343.58 36.1648C350.096 43.0719 353.354 53.8887 353.354 68.6151V107.516C353.354 111.687 353.745 114.684 354.527 116.509C355.439 118.333 356.351 119.245 357.264 119.245H321.686C322.598 119.245 323.445 118.333 324.227 116.509C325.139 114.684 325.595 111.687 325.595 107.516V69.2015C325.595 63.0764 324.944 58.3196 323.64 54.9312C322.337 51.4125 320.513 48.9364 318.167 47.5029C315.951 46.0693 313.345 45.3526 310.347 45.3526C306.698 45.3526 303.18 46.2648 299.791 48.0893C296.533 49.7835 293.862 52.5203 291.777 56.2996C289.691 59.9487 288.649 64.8358 288.649 70.9609V107.516C288.649 111.687 289.04 114.684 289.822 116.509C290.734 118.333 291.646 119.245 292.558 119.245H256.98ZM386.195 119.245C387.107 119.115 387.954 118.138 388.736 116.313C389.649 114.489 390.105 111.556 390.105 107.516V70.9609C390.105 65.748 389.583 61.2519 388.541 57.4725C387.629 53.5629 386.065 50.5654 383.849 48.4803C381.634 46.3951 378.636 45.3526 374.857 45.3526C368.471 45.3526 363.258 47.6332 359.218 52.1945C355.309 56.7558 353.354 63.6628 353.354 72.9157H339.084C339.084 66.6603 340.061 60.7306 342.016 55.1267C343.971 49.3925 346.773 44.3751 350.422 40.0745C354.071 35.6435 358.436 32.19 363.519 29.7139C368.602 27.1074 374.205 25.8042 380.331 25.8042C388.15 25.8042 394.862 27.2377 400.465 30.1048C406.069 32.8416 410.37 37.468 413.367 43.9842C416.365 50.5003 417.863 59.3622 417.863 70.5699V107.516C417.863 111.556 418.254 114.489 419.036 116.313C419.949 118.138 420.861 119.115 421.773 119.245H386.195Z" fill="white"/>
  <path d="M178.732 121.2C167.003 121.2 157.62 118.92 150.582 114.358C143.675 109.667 140.222 102.173 140.222 91.8776C140.222 84.7099 142.046 78.9106 145.695 74.4796C149.344 70.0486 154.296 66.7906 160.552 64.7054C166.938 62.4899 174.171 61.3822 182.251 61.3822C188.245 61.3822 193.328 61.9035 197.498 62.9461C201.799 63.9887 205.253 65.0964 207.859 66.2693C210.465 67.4422 212.16 68.2893 212.942 68.8106C212.942 63.337 212.355 58.9061 211.182 55.5177C210.009 51.999 207.859 49.4577 204.731 47.8938C201.734 46.1996 197.498 45.3526 192.025 45.3526C184.075 45.3526 177.038 46.1345 170.913 47.6984C164.787 49.2622 159.77 51.0867 155.86 53.1719C152.081 55.257 149.475 57.0164 148.041 58.45V52.5854L146.086 33.4281C146.998 32.9068 149.409 32.0597 153.319 30.8868C157.229 29.7139 162.572 28.6061 169.349 27.5635C176.125 26.3906 184.205 25.8042 193.589 25.8042C206.491 25.8042 216.33 27.6939 223.107 31.4732C229.883 35.1222 234.51 40.4003 236.986 47.3074C239.592 54.2145 240.896 62.5551 240.896 72.3293V107.516C240.896 111.165 241.287 113.837 242.069 115.531C242.981 117.095 243.893 118.333 244.805 119.245H213.137V115.14L213.528 111.426L213.137 111.035C212.094 112.208 210.596 113.381 208.641 114.554C206.686 115.727 204.275 116.834 201.408 117.877C198.541 118.789 195.218 119.571 191.438 120.223C187.659 120.874 183.424 121.2 178.732 121.2ZM187.92 101.456C193.393 101.456 197.954 101.065 201.604 100.283C205.383 99.3712 208.25 98.1983 210.205 96.7647C212.16 95.2009 213.137 93.3764 213.137 91.2912C213.137 88.2938 210.856 85.8177 206.295 83.8628C201.864 81.908 195.804 80.9306 188.115 80.9306C180.687 80.9306 175.409 81.9731 172.281 84.0583C169.284 86.1435 167.785 88.7499 167.785 91.8776C167.785 95.7873 169.544 98.3938 173.063 99.697C176.582 100.87 181.534 101.456 187.92 101.456Z" fill="white"/>
  <path d="M57.2767 121.2C39.5528 121.2 25.5432 116.313 15.2477 106.539C5.08257 96.634 0 81.4515 0 60.9909C0 49.0012 2.28064 38.4451 6.84192 29.3225C11.4032 20.0696 18.6361 12.9019 28.5406 7.81933C38.4451 2.60644 51.2819 0 67.0509 0C79.4315 0 89.6618 0.651608 97.7418 1.95483C105.952 3.25805 111.556 4.56128 114.553 5.8645V11.729L118.463 33.2322C114.944 30.6258 108.754 28.0193 99.8921 25.4129C91.0302 22.8064 80.2134 21.5032 67.4418 21.5032C58.7102 21.5032 51.5425 23.0019 45.9386 25.9993C40.3348 28.8664 36.2296 33.2322 33.6232 39.0967C31.0167 44.9612 29.7135 52.2593 29.7135 60.9909C29.7135 70.3741 30.8864 77.9328 33.2322 83.667C35.578 89.2708 39.3574 93.3108 44.5703 95.7869C49.7832 98.2631 56.6902 99.5011 65.2915 99.5011C71.8076 99.5011 77.0857 98.8495 81.1257 97.5463C85.1657 96.1127 88.1631 94.2231 90.1179 91.8773C92.0728 89.4011 93.0502 86.6644 93.0502 83.667V80.5392C93.0502 77.5418 92.7895 75.8476 92.2682 75.4567C91.8773 74.9354 90.1831 74.6747 87.1857 74.6747H80.9302C76.4992 74.6747 72.7199 75.1308 69.5922 76.0431C66.4644 76.9554 64.2489 77.8676 62.9457 78.7799L64.9005 59.427V53.5625H126.478C125.566 53.6928 124.653 54.6702 123.741 56.4947C122.959 58.1889 122.568 61.1212 122.568 65.2915V107.516C122.568 111.686 122.959 114.684 123.741 116.508C124.653 118.333 125.566 119.245 126.478 119.245H93.0502V116.704L93.4411 111.23L93.0502 110.839C92.1379 112.142 90.3134 113.641 87.5767 115.335C84.8399 116.899 80.9954 118.268 76.0431 119.44C71.2212 120.613 64.9657 121.2 57.2767 121.2Z" fill="white"/>
</g>
<g filter="url(#filter0_d_2184_2512)">
<path d="M913.815 127.245C914.728 127.245 915.575 126.333 916.357 124.509C917.269 122.684 917.725 119.687 917.725 115.516V49.4429C917.725 45.2726 917.269 42.3403 916.357 40.6461C915.575 38.8216 914.728 37.8442 913.815 37.7139C919.55 37.7139 925.414 37.3229 931.409 36.541C937.404 35.6287 942.095 34.7165 945.484 33.8042V41.6235L945.093 44.9468L945.484 45.3377C946.396 43.9042 947.829 42.3403 949.784 40.6461C951.869 38.8216 954.476 37.2577 957.604 35.9545C960.862 34.521 964.641 33.8042 968.942 33.8042C975.328 33.8042 980.997 34.7165 985.949 36.541C990.901 38.2352 994.42 39.9945 996.505 41.819L990.64 68.0138V73.8783C988.686 71.1416 986.014 68.3396 982.626 65.4725C979.368 62.6054 975.718 60.1945 971.678 58.2396C967.769 56.2848 963.729 55.3074 959.559 55.3074C954.867 55.3074 951.348 57.0016 949.002 60.39C946.657 63.7783 945.484 69.1216 945.484 76.4196V115.516C945.484 119.687 945.875 122.684 946.657 124.509C947.569 126.333 948.481 127.245 949.393 127.245H913.815Z" fill="#4DD5BC"/>
<path d="M857.436 129.2C847.141 129.2 838.539 128.158 831.632 126.072C824.856 123.857 819.447 120.729 815.407 116.689C811.367 112.519 808.5 107.502 806.806 101.637C805.112 95.7725 804.265 89.1261 804.265 81.6977C804.265 66.9712 808.37 55.3074 816.58 46.7061C824.79 38.1048 837.366 33.8042 854.308 33.8042C864.213 33.8042 872.228 35.1726 878.353 37.9093C884.608 40.6461 889.365 44.2951 892.623 48.8564C895.881 53.4177 898.097 58.5003 899.27 64.1042C900.573 69.5777 901.225 75.1164 901.225 80.7203V89.908C901.225 89.517 899.4 89.1261 895.751 88.7351C892.232 88.2138 886.237 87.9531 877.766 87.9531H832.414C832.414 95.1209 834.565 100.529 838.865 104.178C843.296 107.697 850.464 109.456 860.368 109.456C868.709 109.456 876.137 108.479 882.654 106.524C889.3 104.439 894.122 102.484 897.119 100.66V106.524L899.074 121.381C896.598 123.075 891.841 124.834 884.804 126.659C877.766 128.353 868.644 129.2 857.436 129.2ZM839.647 71.1416H873.466C873.466 68.2745 872.814 65.4725 871.511 62.7358C870.338 59.999 868.383 57.7835 865.646 56.0893C862.91 54.2648 859.13 53.3526 854.308 53.3526C849.486 53.3526 845.577 54.0693 842.579 55.5029C839.712 56.9364 837.562 58.6958 836.128 60.7809C834.825 62.8661 834.174 65.0164 834.174 67.2319C834.174 68.5351 834.565 69.5125 835.347 70.1641C836.128 70.8158 837.562 71.1416 839.647 71.1416Z" fill="#4DD5BC"/>
<path d="M728.893 127.245C729.805 127.245 730.391 126.398 730.652 124.704C731.043 122.879 730.456 119.817 728.893 115.516C728.371 113.822 727.198 110.824 725.374 106.524C723.68 102.223 721.66 97.2709 719.314 91.6671C716.968 86.0632 714.557 80.3942 712.081 74.66C709.735 68.7955 707.52 63.5175 705.435 58.8259C703.48 54.0039 701.981 50.3549 700.938 47.8788C699.114 43.4478 697.224 40.3201 695.269 38.4956C693.445 36.671 692.011 35.7588 690.969 35.7588H730.652C729.74 35.7588 729.153 36.671 728.893 38.4956C728.632 40.3201 729.218 43.4478 730.652 47.8788C731.434 50.0943 732.542 53.4826 733.975 58.0439C735.539 62.6052 737.298 67.8181 739.253 73.6826C741.208 79.4168 743.163 85.2813 745.118 91.2761C747.203 97.271 749.093 102.81 750.787 107.892H750.982C752.676 102.81 754.371 97.7922 756.065 92.84C757.759 87.7574 759.453 82.74 761.147 77.7878C762.842 72.7052 764.536 67.6878 766.23 62.7355C767.924 57.653 769.618 52.5704 771.313 47.4878C772.746 43.3175 773.333 40.3201 773.072 38.4956C772.811 36.671 772.225 35.7588 771.313 35.7588H810.214C809.301 35.7588 807.998 36.671 806.304 38.4956C804.61 40.1898 802.851 43.122 801.026 47.2923C800.114 49.6381 798.68 53.1568 796.725 57.8484C794.771 62.4097 792.555 67.5574 790.079 73.2916C787.733 78.8955 785.322 84.4994 782.846 90.1032C780.5 95.7071 778.415 100.79 776.591 105.351C774.766 109.912 773.463 113.301 772.681 115.516C771.247 119.947 770.661 123.01 770.922 124.704C771.182 126.398 771.769 127.245 772.681 127.245H728.893Z" fill="#4DD5BC"/>
<path d="M646.419 129.2C633.386 129.2 623.156 127.115 615.728 122.945C608.43 118.774 603.282 113.105 600.284 105.938C597.417 98.7699 595.984 90.6899 595.984 81.6977C595.984 72.5751 597.483 64.43 600.48 57.2622C603.608 50.0945 608.821 44.4255 616.119 40.2552C623.417 35.9545 633.517 33.8042 646.419 33.8042C659.321 33.8042 669.421 35.9545 676.719 40.2552C684.017 44.4255 689.164 50.0945 692.162 57.2622C695.29 64.43 696.853 72.5751 696.853 81.6977C696.853 90.6899 695.355 98.7699 692.357 105.938C689.49 113.105 684.408 118.774 677.11 122.945C669.811 127.115 659.581 129.2 646.419 129.2ZM646.419 109.456C651.892 109.456 656.258 108.674 659.516 107.111C662.904 105.416 665.315 102.549 666.749 98.5093C668.313 94.4693 669.095 88.8654 669.095 81.6977C669.095 74.5299 668.313 68.9261 666.749 64.8861C665.315 60.7158 662.904 57.7835 659.516 56.0893C656.258 54.2648 651.892 53.3526 646.419 53.3526C640.945 53.3526 636.514 54.2648 633.126 56.0893C629.868 57.9138 627.457 60.9112 625.893 65.0816C624.459 69.2519 623.743 74.8557 623.743 81.8932C623.743 88.8002 624.459 94.2738 625.893 98.3138C627.457 102.354 629.868 105.221 633.126 106.915C636.514 108.609 640.945 109.456 646.419 109.456Z" fill="#4DD5BC"/>
<path d="M499.289 129.2C488.994 129.2 480.392 128.158 473.485 126.072C466.709 123.857 461.3 120.729 457.26 116.689C453.22 112.519 450.353 107.502 448.659 101.637C446.965 95.7725 446.118 89.1261 446.118 81.6977C446.118 66.9712 450.223 55.3074 458.433 46.7061C466.643 38.1048 479.22 33.8042 496.161 33.8042C506.066 33.8042 514.081 35.1726 520.206 37.9093C526.461 40.6461 531.218 44.2951 534.476 48.8564C537.734 53.4177 539.95 58.5003 541.123 64.1042C542.426 69.5777 543.078 75.1164 543.078 80.7203V89.908C543.078 89.517 541.253 89.1261 537.604 88.7351C534.085 88.2138 528.09 87.9531 519.619 87.9531H474.267C474.267 95.1209 476.418 100.529 480.718 104.178C485.149 107.697 492.317 109.456 502.221 109.456C510.562 109.456 517.99 108.479 524.507 106.524C531.153 104.439 535.975 102.484 538.972 100.66V106.524L540.927 121.381C538.451 123.075 533.694 124.834 526.657 126.659C519.619 128.353 510.497 129.2 499.289 129.2ZM481.5 71.1416H515.319C515.319 68.2745 514.667 65.4725 513.364 62.7358C512.191 59.999 510.236 57.7835 507.5 56.0893C504.763 54.2648 500.983 53.3526 496.161 53.3526C491.34 53.3526 487.43 54.0693 484.432 55.5029C481.565 56.9364 479.415 58.6958 477.981 60.7809C476.678 62.8661 476.027 65.0164 476.027 67.2319C476.027 68.5351 476.418 69.5125 477.2 70.1641C477.981 70.8158 479.415 71.1416 481.5 71.1416Z" fill="#4DD5BC"/>
<path d="M271.98 127.245C272.893 127.245 273.74 126.333 274.522 124.509C275.434 122.684 275.89 119.687 275.89 115.516V49.4429C275.89 45.2726 275.434 42.3403 274.522 40.6461C273.74 38.8216 272.893 37.8442 271.98 37.7139C277.715 37.7139 283.579 37.3229 289.574 36.541C295.569 35.6287 300.26 34.7165 303.649 33.8042V45.7287L303.258 48.27L303.649 48.661C304.04 47.7487 305.278 46.1197 307.363 43.7739C309.448 41.4281 312.446 39.2126 316.355 37.1274C320.265 34.9119 325.087 33.8042 330.821 33.8042C342.941 33.8042 352.194 37.2577 358.58 44.1648C365.096 51.0719 368.354 61.8887 368.354 76.6151V115.516C368.354 119.687 368.745 122.684 369.527 124.509C370.439 126.333 371.351 127.245 372.264 127.245H336.686C337.598 127.245 338.445 126.333 339.227 124.509C340.139 122.684 340.595 119.687 340.595 115.516V77.2015C340.595 71.0764 339.944 66.3196 338.64 62.9312C337.337 59.4125 335.513 56.9364 333.167 55.5029C330.951 54.0693 328.345 53.3526 325.347 53.3526C321.698 53.3526 318.18 54.2648 314.791 56.0893C311.533 57.7835 308.862 60.5203 306.777 64.2996C304.691 67.9487 303.649 72.8358 303.649 78.9609V115.516C303.649 119.687 304.04 122.684 304.822 124.509C305.734 126.333 306.646 127.245 307.558 127.245H271.98ZM401.195 127.245C402.107 127.115 402.954 126.138 403.736 124.313C404.649 122.489 405.105 119.556 405.105 115.516V78.9609C405.105 73.748 404.583 69.2519 403.541 65.4725C402.629 61.5629 401.065 58.5654 398.849 56.4803C396.634 54.3951 393.636 53.3526 389.857 53.3526C383.471 53.3526 378.258 55.6332 374.218 60.1945C370.309 64.7558 368.354 71.6628 368.354 80.9157H354.084C354.084 74.6603 355.061 68.7306 357.016 63.1267C358.971 57.3926 361.773 52.3751 365.422 48.0745C369.071 43.6435 373.436 40.19 378.519 37.7139C383.602 35.1074 389.205 33.8042 395.331 33.8042C403.15 33.8042 409.862 35.2377 415.465 38.1048C421.069 40.8416 425.37 45.468 428.367 51.9842C431.365 58.5003 432.863 67.3622 432.863 78.5699V115.516C432.863 119.556 433.254 122.489 434.036 124.313C434.949 126.138 435.861 127.115 436.773 127.245H401.195Z" fill="#4DD5BC"/>
<path d="M193.732 129.2C182.003 129.2 172.62 126.92 165.582 122.358C158.675 117.667 155.222 110.173 155.222 99.8776C155.222 92.7099 157.046 86.9106 160.695 82.4796C164.344 78.0486 169.296 74.7906 175.552 72.7054C181.938 70.4899 189.171 69.3822 197.251 69.3822C203.245 69.3822 208.328 69.9035 212.498 70.9461C216.799 71.9887 220.253 73.0964 222.859 74.2693C225.465 75.4422 227.16 76.2893 227.942 76.8106C227.942 71.337 227.355 66.9061 226.182 63.5177C225.009 59.999 222.859 57.4577 219.731 55.8938C216.734 54.1996 212.498 53.3526 207.025 53.3526C199.075 53.3526 192.038 54.1345 185.913 55.6984C179.787 57.2622 174.77 59.0867 170.86 61.1719C167.081 63.257 164.475 65.0164 163.041 66.45V60.5854L161.086 41.4281C161.998 40.9068 164.409 40.0597 168.319 38.8868C172.229 37.7139 177.572 36.6061 184.349 35.5635C191.125 34.3906 199.205 33.8042 208.589 33.8042C221.491 33.8042 231.33 35.6939 238.107 39.4732C244.883 43.1222 249.51 48.4003 251.986 55.3074C254.592 62.2145 255.896 70.5551 255.896 80.3293V115.516C255.896 119.165 256.287 121.837 257.069 123.531C257.981 125.095 258.893 126.333 259.805 127.245H228.137V123.14L228.528 119.426L228.137 119.035C227.094 120.208 225.596 121.381 223.641 122.554C221.686 123.727 219.275 124.834 216.408 125.877C213.541 126.789 210.218 127.571 206.438 128.223C202.659 128.874 198.424 129.2 193.732 129.2ZM202.92 109.456C208.393 109.456 212.954 109.065 216.604 108.283C220.383 107.371 223.25 106.198 225.205 104.765C227.16 103.201 228.137 101.376 228.137 99.2912C228.137 96.2938 225.856 93.8177 221.295 91.8628C216.864 89.908 210.804 88.9306 203.115 88.9306C195.687 88.9306 190.409 89.9731 187.281 92.0583C184.284 94.1435 182.785 96.7499 182.785 99.8776C182.785 103.787 184.544 106.394 188.063 107.697C191.582 108.87 196.534 109.456 202.92 109.456Z" fill="#4DD5BC"/>
<path d="M72.2767 129.2C54.5528 129.2 40.5432 124.313 30.2477 114.539C20.0826 104.634 15 89.4515 15 68.9909C15 57.0012 17.2806 46.4451 21.8419 37.3225C26.4032 28.0696 33.6361 20.9019 43.5406 15.8193C53.4451 10.6064 66.2819 8 82.0509 8C94.4315 8 104.662 8.65161 112.742 9.95483C120.952 11.2581 126.556 12.5613 129.553 13.8645V19.729L133.463 41.2322C129.944 38.6258 123.754 36.0193 114.892 33.4129C106.03 30.8064 95.2134 29.5032 82.4418 29.5032C73.7102 29.5032 66.5425 31.0019 60.9386 33.9993C55.3348 36.8664 51.2296 41.2322 48.6232 47.0967C46.0167 52.9612 44.7135 60.2593 44.7135 68.9909C44.7135 78.3741 45.8864 85.9328 48.2322 91.667C50.578 97.2708 54.3574 101.311 59.5703 103.787C64.7832 106.263 71.6902 107.501 80.2915 107.501C86.8076 107.501 92.0857 106.85 96.1257 105.546C100.166 104.113 103.163 102.223 105.118 99.8773C107.073 97.4011 108.05 94.6644 108.05 91.667V88.5392C108.05 85.5418 107.79 83.8476 107.268 83.4567C106.877 82.9354 105.183 82.6747 102.186 82.6747H95.9302C91.4992 82.6747 87.7199 83.1308 84.5922 84.0431C81.4644 84.9554 79.2489 85.8676 77.9457 86.7799L79.9005 67.427V61.5625H141.478C140.566 61.6928 139.653 62.6702 138.741 64.4947C137.959 66.1889 137.568 69.1212 137.568 73.2915V115.516C137.568 119.686 137.959 122.684 138.741 124.508C139.653 126.333 140.566 127.245 141.478 127.245H108.05V124.704L108.441 119.23L108.05 118.839C107.138 120.142 105.313 121.641 102.577 123.335C99.8399 124.899 95.9954 126.268 91.0431 127.44C86.2212 128.613 79.9657 129.2 72.2767 129.2Z" fill="#4DD5BC"/>
</g>
<defs>
<filter id="filter0_d_2184_2512" x="0" y="0" width="997.505" height="137.2" filterUnits="userSpaceOnUse" color-interpolation-filters="sRGB">
<feFlood flood-opacity="0" result="BackgroundImageFix"/>
<feColorMatrix in="SourceAlpha" type="matrix" values="0 0 0 0 0 0 0 0 0 0 0 0 0 0 0 0 0 0 127 0" result="hardAlpha"/>
<feOffset dx="-7"/>
<feGaussianBlur stdDeviation="4"/>
<feComposite in2="hardAlpha" operator="out"/>
<feColorMatrix type="matrix" values="0 0 0 0 0.301961 0 0 0 0 0.835294 0 0 0 0 0.737255 0 0 0 0.5 0"/>
<feBlend mode="normal" in2="BackgroundImageFix" result="effect1_dropShadow_2184_2512"/>
<feBlend mode="normal" in="SourceGraphic" in2="effect1_dropShadow_2184_2512" result="shape"/>
</filter>
</defs>
</svg>
