<svg width="1440" height="1024" viewBox="0 0 1440 1024" fill="none" xmlns="http://www.w3.org/2000/svg">
<rect width="1440" height="1024" fill="#1E7594"/>
<path d="M602.86 230V205.08H593.94V202H615.14V205.08H606.22V230H602.86ZM618.37 230V202H621.57V230H618.37ZM632.45 230V219.76H635.65V230H632.45ZM632.45 219.76C632.45 217.787 632.21 216.28 631.73 215.24C631.277 214.2 630.65 213.493 629.85 213.12C629.05 212.72 628.144 212.52 627.13 212.52C625.37 212.52 623.997 213.147 623.01 214.4C622.05 215.627 621.57 217.373 621.57 219.64H620.01C620.01 217.533 620.317 215.72 620.93 214.2C621.57 212.68 622.477 211.52 623.65 210.72C624.824 209.92 626.237 209.52 627.89 209.52C629.437 209.52 630.797 209.84 631.97 210.48C633.144 211.093 634.05 212.08 634.69 213.44C635.357 214.8 635.677 216.587 635.65 218.8V219.76H632.45ZM649.435 230.48C647.488 230.48 645.768 230.04 644.275 229.16C642.782 228.253 641.608 227.013 640.755 225.44C639.928 223.867 639.515 222.053 639.515 220C639.515 217.947 639.928 216.133 640.755 214.56C641.608 212.987 642.768 211.76 644.235 210.88C645.728 209.973 647.435 209.52 649.355 209.52C651.222 209.52 652.835 209.987 654.195 210.92C655.555 211.827 656.608 213.107 657.355 214.76C658.102 216.413 658.475 218.36 658.475 220.6H641.955L642.755 219.92C642.755 221.52 643.035 222.893 643.595 224.04C644.182 225.187 644.995 226.067 646.035 226.68C647.075 227.267 648.262 227.56 649.595 227.56C651.008 227.56 652.195 227.227 653.155 226.56C654.142 225.893 654.902 225.013 655.435 223.92L658.195 225.32C657.688 226.36 657.008 227.267 656.155 228.04C655.328 228.813 654.342 229.413 653.195 229.84C652.075 230.267 650.822 230.48 649.435 230.48ZM642.955 218.56L642.115 217.92H655.915L655.075 218.6C655.075 217.32 654.822 216.213 654.315 215.28C653.808 214.347 653.128 213.627 652.275 213.12C651.422 212.613 650.435 212.36 649.315 212.36C648.222 212.36 647.182 212.613 646.195 213.12C645.235 213.627 644.448 214.347 643.835 215.28C643.248 216.187 642.955 217.28 642.955 218.56ZM690.554 230L697.314 210H700.554L693.754 230H690.554ZM676.954 230L683.714 210H686.714L680.034 230H676.954ZM676.794 230L669.994 210H673.234L679.914 230H676.794ZM690.554 230L683.874 210H686.914L693.594 230H690.554ZM703.961 230V210H707.161V230H703.961ZM705.601 205.36C705.068 205.36 704.601 205.16 704.201 204.76C703.801 204.36 703.601 203.893 703.601 203.36C703.601 202.8 703.801 202.333 704.201 201.96C704.601 201.56 705.068 201.36 705.601 201.36C706.161 201.36 706.628 201.56 707.001 201.96C707.401 202.333 707.601 202.8 707.601 203.36C707.601 203.893 707.401 204.36 707.001 204.76C706.628 205.16 706.161 205.36 705.601 205.36ZM713.058 230V210H716.058L716.258 213.68V230H713.058ZM727.098 230V219.76H730.298V230H727.098ZM727.098 219.76C727.098 217.787 726.871 216.28 726.418 215.24C725.964 214.2 725.338 213.493 724.538 213.12C723.738 212.72 722.831 212.52 721.818 212.52C720.058 212.52 718.684 213.147 717.698 214.4C716.738 215.627 716.258 217.373 716.258 219.64H714.698C714.698 217.533 715.004 215.72 715.618 214.2C716.231 212.68 717.124 211.52 718.298 210.72C719.471 209.92 720.884 209.52 722.538 209.52C724.111 209.52 725.471 209.84 726.618 210.48C727.791 211.093 728.698 212.08 729.338 213.44C730.004 214.8 730.324 216.587 730.298 218.8V219.76H727.098ZM735.363 230V210H738.363L738.563 213.68V230H735.363ZM749.403 230V219.76H752.603V230H749.403ZM749.403 219.76C749.403 217.787 749.176 216.28 748.723 215.24C748.269 214.2 747.643 213.493 746.843 213.12C746.043 212.72 745.136 212.52 744.123 212.52C742.363 212.52 740.989 213.147 740.003 214.4C739.043 215.627 738.563 217.373 738.563 219.64H737.003C737.003 217.533 737.309 215.72 737.923 214.2C738.536 212.68 739.429 211.52 740.603 210.72C741.776 209.92 743.189 209.52 744.843 209.52C746.416 209.52 747.776 209.84 748.923 210.48C750.096 211.093 751.003 212.08 751.643 213.44C752.309 214.8 752.629 216.587 752.603 218.8V219.76H749.403ZM766.427 230.48C764.481 230.48 762.761 230.04 761.267 229.16C759.774 228.253 758.601 227.013 757.747 225.44C756.921 223.867 756.507 222.053 756.507 220C756.507 217.947 756.921 216.133 757.747 214.56C758.601 212.987 759.761 211.76 761.227 210.88C762.721 209.973 764.427 209.52 766.347 209.52C768.214 209.52 769.827 209.987 771.187 210.92C772.547 211.827 773.601 213.107 774.347 214.76C775.094 216.413 775.467 218.36 775.467 220.6H758.947L759.747 219.92C759.747 221.52 760.027 222.893 760.587 224.04C761.174 225.187 761.987 226.067 763.027 226.68C764.067 227.267 765.254 227.56 766.587 227.56C768.001 227.56 769.187 227.227 770.147 226.56C771.134 225.893 771.894 225.013 772.427 223.92L775.187 225.32C774.681 226.36 774.001 227.267 773.147 228.04C772.321 228.813 771.334 229.413 770.187 229.84C769.067 230.267 767.814 230.48 766.427 230.48ZM759.947 218.56L759.107 217.92H772.907L772.067 218.6C772.067 217.32 771.814 216.213 771.307 215.28C770.801 214.347 770.121 213.627 769.267 213.12C768.414 212.613 767.427 212.36 766.307 212.36C765.214 212.36 764.174 212.613 763.187 213.12C762.227 213.627 761.441 214.347 760.827 215.28C760.241 216.187 759.947 217.28 759.947 218.56ZM781.263 219.16C781.263 217 781.676 215.253 782.503 213.92C783.33 212.56 784.383 211.56 785.663 210.92C786.97 210.253 788.343 209.92 789.783 209.92V212.92C788.61 212.92 787.476 213.12 786.383 213.52C785.316 213.893 784.436 214.52 783.743 215.4C783.05 216.28 782.703 217.48 782.703 219L781.263 219.16ZM779.503 230V210H782.703V230H779.503ZM803.102 230V210H806.302V230H803.102ZM804.742 205.36C804.208 205.36 803.742 205.16 803.342 204.76C802.942 204.36 802.742 203.893 802.742 203.36C802.742 202.8 802.942 202.333 803.342 201.96C803.742 201.56 804.208 201.36 804.742 201.36C805.302 201.36 805.768 201.56 806.142 201.96C806.542 202.333 806.742 202.8 806.742 203.36C806.742 203.893 806.542 204.36 806.142 204.76C805.768 205.16 805.302 205.36 804.742 205.36ZM819.198 230.48C817.732 230.48 816.452 230.267 815.358 229.84C814.265 229.387 813.345 228.8 812.598 228.08C811.878 227.36 811.358 226.573 811.038 225.72L813.838 224.56C814.292 225.467 814.972 226.2 815.878 226.76C816.785 227.32 817.785 227.6 818.878 227.6C820.132 227.6 821.185 227.36 822.038 226.88C822.892 226.373 823.318 225.667 823.318 224.76C823.318 223.933 822.998 223.267 822.358 222.76C821.745 222.253 820.825 221.84 819.598 221.52L817.678 221C815.865 220.52 814.452 219.8 813.438 218.84C812.425 217.853 811.918 216.747 811.918 215.52C811.918 213.627 812.532 212.16 813.758 211.12C815.012 210.053 816.865 209.52 819.318 209.52C820.492 209.52 821.558 209.693 822.518 210.04C823.478 210.387 824.305 210.88 824.998 211.52C825.692 212.133 826.198 212.867 826.518 213.72L823.718 214.96C823.372 214.053 822.798 213.4 821.998 213C821.198 212.6 820.225 212.4 819.078 212.4C817.852 212.4 816.892 212.667 816.198 213.2C815.505 213.707 815.158 214.427 815.158 215.36C815.158 215.893 815.438 216.4 815.998 216.88C816.585 217.333 817.438 217.707 818.558 218L820.558 218.52C821.865 218.84 822.958 219.32 823.838 219.96C824.718 220.573 825.385 221.28 825.838 222.08C826.292 222.88 826.518 223.733 826.518 224.64C826.518 225.84 826.198 226.88 825.558 227.76C824.918 228.64 824.052 229.32 822.958 229.8C821.865 230.253 820.612 230.48 819.198 230.48Z" fill="white"/>
<path d="M490.821 313.96C485.167 313.96 480.154 312.733 475.781 310.28C471.461 307.773 468.074 304.36 465.621 300.04C463.167 295.667 461.941 290.68 461.941 285.08C461.941 279.373 463.167 274.36 465.621 270.04C468.074 265.667 471.434 262.253 475.701 259.8C480.021 257.347 484.981 256.12 490.581 256.12C496.234 256.12 501.194 257.373 505.461 259.88C509.781 262.333 513.167 265.747 515.621 270.12C518.074 274.44 519.301 279.427 519.301 285.08C519.301 290.68 518.074 295.667 515.621 300.04C513.221 304.36 509.861 307.773 505.541 310.28C501.274 312.733 496.367 313.96 490.821 313.96ZM490.821 303.96C494.234 303.96 497.221 303.16 499.781 301.56C502.394 299.907 504.421 297.667 505.861 294.84C507.354 292.013 508.101 288.76 508.101 285.08C508.101 281.347 507.354 278.067 505.861 275.24C504.367 272.413 502.314 270.2 499.701 268.6C497.087 266.947 494.047 266.12 490.581 266.12C487.221 266.12 484.207 266.947 481.541 268.6C478.927 270.2 476.874 272.413 475.381 275.24C473.887 278.067 473.141 281.347 473.141 285.08C473.141 288.76 473.887 292.013 475.381 294.84C476.874 297.667 478.954 299.907 481.621 301.56C484.287 303.16 487.354 303.96 490.821 303.96ZM534.109 291.96C534.109 287.64 534.936 284.067 536.589 281.24C538.296 278.413 540.456 276.307 543.069 274.92C545.736 273.533 548.509 272.84 551.389 272.84V283.08C548.936 283.08 546.616 283.373 544.429 283.96C542.296 284.547 540.563 285.507 539.229 286.84C537.896 288.173 537.229 289.88 537.229 291.96H534.109ZM526.669 313V273H537.229V313H526.669ZM581.142 313L580.822 304.92V292.76C580.822 290.36 580.555 288.307 580.022 286.6C579.542 284.893 578.742 283.587 577.622 282.68C576.555 281.72 575.089 281.24 573.222 281.24C571.515 281.24 569.969 281.613 568.582 282.36C567.195 283.107 566.022 284.253 565.062 285.8L555.782 282.6C556.529 280.893 557.622 279.24 559.062 277.64C560.502 275.987 562.369 274.653 564.662 273.64C567.009 272.573 569.862 272.04 573.222 272.04C577.275 272.04 580.635 272.813 583.302 274.36C586.022 275.907 588.022 278.093 589.302 280.92C590.635 283.693 591.275 287 591.222 290.84L590.982 313H581.142ZM569.942 313.96C565.142 313.96 561.409 312.893 558.742 310.76C556.129 308.627 554.822 305.613 554.822 301.72C554.822 297.453 556.235 294.253 559.062 292.12C561.942 289.933 565.969 288.84 571.142 288.84H581.302V296.68H574.822C571.355 296.68 568.955 297.107 567.622 297.96C566.289 298.76 565.622 299.907 565.622 301.4C565.622 302.573 566.155 303.507 567.222 304.2C568.289 304.84 569.782 305.16 571.702 305.16C573.462 305.16 575.009 304.76 576.342 303.96C577.729 303.107 578.822 302.04 579.622 300.76C580.422 299.427 580.822 298.067 580.822 296.68H583.382C583.382 302.12 582.342 306.36 580.262 309.4C578.235 312.44 574.795 313.96 569.942 313.96ZM599.638 313V273H609.558L610.198 280.36V313H599.638ZM626.118 313V292.52H636.678V313H626.118ZM626.118 292.52C626.118 289.8 625.798 287.693 625.158 286.2C624.571 284.707 623.718 283.64 622.598 283C621.478 282.307 620.171 281.96 618.678 281.96C615.958 281.907 613.851 282.733 612.358 284.44C610.918 286.147 610.198 288.68 610.198 292.04H606.678C606.678 287.773 607.291 284.173 608.518 281.24C609.798 278.253 611.558 275.987 613.798 274.44C616.091 272.84 618.758 272.04 621.798 272.04C624.945 272.04 627.638 272.68 629.878 273.96C632.118 275.24 633.825 277.24 634.998 279.96C636.171 282.627 636.731 286.093 636.678 290.36V292.52H626.118ZM663.107 330.04C660.067 330.04 657.374 329.827 655.027 329.4C652.68 328.973 650.707 328.413 649.107 327.72C647.507 327.027 646.2 326.333 645.187 325.64L649.347 317.16C650.094 317.587 651.08 318.067 652.307 318.6C653.534 319.187 655 319.667 656.707 320.04C658.414 320.467 660.387 320.68 662.627 320.68C664.76 320.68 666.627 320.253 668.227 319.4C669.88 318.6 671.16 317.32 672.067 315.56C673.027 313.853 673.507 311.667 673.507 309V273H684.067V308.68C684.067 313.16 683.214 317 681.507 320.2C679.8 323.453 677.374 325.907 674.227 327.56C671.134 329.213 667.427 330.04 663.107 330.04ZM661.027 311.88C657.347 311.88 654.147 311.08 651.427 309.48C648.76 307.88 646.68 305.64 645.187 302.76C643.694 299.88 642.947 296.467 642.947 292.52C642.947 288.36 643.694 284.76 645.187 281.72C646.68 278.627 648.76 276.253 651.427 274.6C654.147 272.893 657.347 272.04 661.027 272.04C664.227 272.04 667 272.893 669.347 274.6C671.694 276.253 673.507 278.627 674.787 281.72C676.067 284.813 676.707 288.493 676.707 292.76C676.707 296.6 676.067 299.96 674.787 302.84C673.507 305.72 671.694 307.96 669.347 309.56C667 311.107 664.227 311.88 661.027 311.88ZM664.067 303C665.88 303 667.454 302.547 668.787 301.64C670.174 300.68 671.24 299.4 671.987 297.8C672.734 296.147 673.107 294.28 673.107 292.2C673.107 290.067 672.707 288.2 671.907 286.6C671.16 285 670.094 283.747 668.707 282.84C667.374 281.933 665.8 281.48 663.987 281.48C662.12 281.48 660.467 281.933 659.027 282.84C657.587 283.747 656.467 285 655.667 286.6C654.867 288.2 654.44 290.067 654.387 292.2C654.44 294.28 654.867 296.147 655.667 297.8C656.467 299.4 657.587 300.68 659.027 301.64C660.52 302.547 662.2 303 664.067 303ZM711.234 313.96C707.287 313.96 703.794 313.08 700.754 311.32C697.714 309.507 695.314 307.027 693.554 303.88C691.847 300.733 690.994 297.107 690.994 293C690.994 288.893 691.874 285.267 693.634 282.12C695.447 278.973 697.9 276.52 700.994 274.76C704.14 272.947 707.74 272.04 711.794 272.04C715.314 272.04 718.54 272.973 721.474 274.84C724.46 276.653 726.834 279.347 728.594 282.92C730.407 286.44 731.314 290.733 731.314 295.8H700.994L701.954 294.84C701.954 296.813 702.434 298.547 703.394 300.04C704.407 301.48 705.687 302.6 707.234 303.4C708.834 304.147 710.54 304.52 712.354 304.52C714.54 304.52 716.327 304.067 717.714 303.16C719.1 302.2 720.167 300.973 720.914 299.48L730.354 303.16C729.234 305.4 727.767 307.347 725.954 309C724.194 310.6 722.087 311.827 719.634 312.68C717.18 313.533 714.38 313.96 711.234 313.96ZM702.514 288.92L701.554 287.96H720.834L719.954 288.92C719.954 287 719.5 285.48 718.594 284.36C717.687 283.187 716.567 282.333 715.234 281.8C713.954 281.267 712.7 281 711.474 281C710.247 281 708.94 281.267 707.554 281.8C706.167 282.333 704.967 283.187 703.954 284.36C702.994 285.48 702.514 287 702.514 288.92ZM758.033 313V257H778.833C782.78 257 786.273 257.8 789.313 259.4C792.353 260.947 794.726 263.133 796.433 265.96C798.14 268.733 798.993 271.96 798.993 275.64C798.993 279.267 798.166 282.493 796.513 285.32C794.86 288.147 792.593 290.387 789.713 292.04C786.833 293.64 783.5 294.44 779.713 294.44H768.993V313H758.033ZM768.993 284.36H779.473C781.926 284.36 783.926 283.56 785.473 281.96C787.073 280.307 787.873 278.2 787.873 275.64C787.873 273.08 786.993 271 785.233 269.4C783.526 267.8 781.313 267 778.593 267H768.993V284.36ZM804.716 313V257H815.276V313H804.716ZM848.564 313L848.244 304.92V292.76C848.244 290.36 847.977 288.307 847.444 286.6C846.964 284.893 846.164 283.587 845.044 282.68C843.977 281.72 842.51 281.24 840.644 281.24C838.937 281.24 837.39 281.613 836.004 282.36C834.617 283.107 833.444 284.253 832.484 285.8L823.204 282.6C823.95 280.893 825.044 279.24 826.484 277.64C827.924 275.987 829.79 274.653 832.084 273.64C834.43 272.573 837.284 272.04 840.644 272.04C844.697 272.04 848.057 272.813 850.724 274.36C853.444 275.907 855.444 278.093 856.724 280.92C858.057 283.693 858.697 287 858.644 290.84L858.404 313H848.564ZM837.364 313.96C832.564 313.96 828.83 312.893 826.164 310.76C823.55 308.627 822.244 305.613 822.244 301.72C822.244 297.453 823.657 294.253 826.484 292.12C829.364 289.933 833.39 288.84 838.564 288.84H848.724V296.68H842.244C838.777 296.68 836.377 297.107 835.044 297.96C833.71 298.76 833.044 299.907 833.044 301.4C833.044 302.573 833.577 303.507 834.644 304.2C835.71 304.84 837.204 305.16 839.124 305.16C840.884 305.16 842.43 304.76 843.764 303.96C845.15 303.107 846.244 302.04 847.044 300.76C847.844 299.427 848.244 298.067 848.244 296.68H850.804C850.804 302.12 849.764 306.36 847.684 309.4C845.657 312.44 842.217 313.96 837.364 313.96ZM873.966 329.96C872.526 329.96 870.926 329.667 869.166 329.08C867.46 328.547 865.94 327.907 864.606 327.16L868.526 318.6C869.433 319.08 870.26 319.453 871.006 319.72C871.806 320.04 872.5 320.2 873.086 320.2C874.206 320.2 875.193 319.88 876.046 319.24C876.9 318.653 877.593 317.773 878.126 316.6L882.846 305.48L895.566 273H907.166L889.006 316.44C887.886 319.107 886.713 321.453 885.486 323.48C884.26 325.56 882.74 327.16 880.926 328.28C879.166 329.4 876.846 329.96 873.966 329.96ZM880.046 313L861.726 273H873.326L886.686 305.48L890.126 313H880.046ZM928.89 313.96C924.943 313.96 921.45 313.08 918.41 311.32C915.37 309.507 912.97 307.027 911.21 303.88C909.503 300.733 908.65 297.107 908.65 293C908.65 288.893 909.53 285.267 911.29 282.12C913.103 278.973 915.557 276.52 918.65 274.76C921.797 272.947 925.397 272.04 929.45 272.04C932.97 272.04 936.197 272.973 939.13 274.84C942.117 276.653 944.49 279.347 946.25 282.92C948.063 286.44 948.97 290.733 948.97 295.8H918.65L919.61 294.84C919.61 296.813 920.09 298.547 921.05 300.04C922.063 301.48 923.343 302.6 924.89 303.4C926.49 304.147 928.197 304.52 930.01 304.52C932.197 304.52 933.983 304.067 935.37 303.16C936.757 302.2 937.823 300.973 938.57 299.48L948.01 303.16C946.89 305.4 945.423 307.347 943.61 309C941.85 310.6 939.743 311.827 937.29 312.68C934.837 313.533 932.037 313.96 928.89 313.96ZM920.17 288.92L919.21 287.96H938.49L937.61 288.92C937.61 287 937.157 285.48 936.25 284.36C935.343 283.187 934.223 282.333 932.89 281.8C931.61 281.267 930.357 281 929.13 281C927.903 281 926.597 281.267 925.21 281.8C923.823 282.333 922.623 283.187 921.61 284.36C920.65 285.48 920.17 287 920.17 288.92ZM962.547 291.96C962.547 287.64 963.374 284.067 965.027 281.24C966.734 278.413 968.894 276.307 971.507 274.92C974.174 273.533 976.947 272.84 979.827 272.84V283.08C977.374 283.08 975.054 283.373 972.867 283.96C970.734 284.547 969 285.507 967.667 286.84C966.334 288.173 965.667 289.88 965.667 291.96H962.547ZM955.107 313V273H965.667V313H955.107Z" fill="white"/>
<path d="M720 394C736.412 394 750.458 399.779 761.965 411.285C773.471 422.792 779.25 436.838 779.25 453.25C779.25 459.373 778.375 465.204 776.607 470.727C775.41 474.47 773.902 478.062 772.086 481.5H782.5C786.797 481.5 790.541 482.986 793.527 485.973C796.514 488.959 798 492.703 798 497C798 501.297 796.514 505.041 793.527 508.027C790.541 511.014 786.797 512.5 782.5 512.5H766.364C769.299 520.619 773.798 529.722 779.91 539.821C786.867 551.316 797.379 562.832 811.562 574.345C815.008 577.102 817.772 580.443 819.839 584.347C821.952 588.338 823 592.677 823 597.312V622C823 629.677 820.231 636.323 814.777 641.777C809.323 647.231 802.677 650 795 650H645C637.323 650 630.677 647.231 625.223 641.777C619.769 636.323 617 629.677 617 622V597.312C617 592.677 618.048 588.338 620.161 584.347C622.228 580.443 624.992 577.102 628.438 574.345C642.621 562.832 653.133 551.316 660.09 539.821C666.202 529.722 670.701 520.619 673.636 512.5H657.5C653.203 512.5 649.459 511.014 646.473 508.027C643.486 505.041 642 501.297 642 497C642 492.703 643.486 488.959 646.473 485.973C649.459 482.986 653.203 481.5 657.5 481.5H667.914C666.098 478.062 664.59 474.47 663.393 470.727C661.625 465.204 660.75 459.373 660.75 453.25C660.75 436.838 666.529 422.792 678.035 411.285C689.542 399.779 703.588 394 720 394ZM706.055 512.5C702.908 523.793 697.266 536.974 689.207 552.011C680.589 568.092 666.797 583.559 648 598.452V619H792V598.452C773.203 583.559 759.411 568.092 750.793 552.011C742.734 536.974 737.092 523.793 733.945 512.5H706.055ZM720 425C712.024 425 705.398 427.72 699.934 433.184C694.47 438.648 691.75 445.274 691.75 453.25C691.75 461.226 694.47 467.852 699.934 473.316C705.398 478.78 712.024 481.5 720 481.5C727.976 481.5 734.602 478.78 740.066 473.316C745.53 467.852 748.25 461.226 748.25 453.25C748.25 445.274 745.53 438.648 740.066 433.184C734.602 427.72 727.976 425 720 425Z" fill="#F58E39" stroke="white" stroke-width="6"/>
<rect x="672" y="711" width="96" height="48" rx="10" fill="#BFE5F2"/>
<path d="M702.74 742V728H705.48V742H702.74ZM693.52 742V727.98H696.26V742H693.52ZM695.56 736.1V733.58H704.04V736.1H695.56ZM712.84 742.24C711.827 742.24 710.92 742.02 710.12 741.58C709.333 741.127 708.713 740.507 708.26 739.72C707.82 738.933 707.6 738.027 707.6 737C707.6 735.973 707.82 735.067 708.26 734.28C708.7 733.493 709.313 732.88 710.1 732.44C710.887 731.987 711.787 731.76 712.8 731.76C713.827 731.76 714.733 731.987 715.52 732.44C716.307 732.88 716.92 733.493 717.36 734.28C717.8 735.067 718.02 735.973 718.02 737C718.02 738.027 717.8 738.933 717.36 739.72C716.92 740.507 716.307 741.127 715.52 741.58C714.747 742.02 713.853 742.24 712.84 742.24ZM712.84 739.8C713.333 739.8 713.767 739.68 714.14 739.44C714.513 739.2 714.8 738.873 715 738.46C715.213 738.033 715.32 737.547 715.32 737C715.32 736.453 715.213 735.973 715 735.56C714.787 735.133 714.487 734.8 714.1 734.56C713.727 734.32 713.293 734.2 712.8 734.2C712.32 734.2 711.887 734.32 711.5 734.56C711.127 734.8 710.833 735.133 710.62 735.56C710.407 735.973 710.3 736.453 710.3 737C710.3 737.547 710.407 738.033 710.62 738.46C710.833 738.873 711.133 739.2 711.52 739.44C711.907 739.68 712.347 739.8 712.84 739.8ZM719.761 742V732H722.241L722.361 733.3C722.668 732.793 723.061 732.413 723.541 732.16C724.021 731.893 724.554 731.76 725.141 731.76C725.954 731.76 726.634 731.933 727.181 732.28C727.741 732.627 728.148 733.16 728.401 733.88C728.694 733.2 729.108 732.68 729.641 732.32C730.174 731.947 730.794 731.76 731.501 731.76C732.674 731.76 733.568 732.133 734.181 732.88C734.794 733.613 735.101 734.747 735.101 736.28V742H732.461V736.88C732.461 736.2 732.388 735.673 732.241 735.3C732.094 734.927 731.894 734.66 731.641 734.5C731.388 734.327 731.088 734.24 730.741 734.24C730.101 734.227 729.608 734.433 729.261 734.86C728.914 735.287 728.741 735.92 728.741 736.76V742H726.101V736.88C726.101 736.2 726.028 735.673 725.881 735.3C725.748 734.927 725.548 734.66 725.281 734.5C725.028 734.327 724.728 734.24 724.381 734.24C723.741 734.227 723.248 734.433 722.901 734.86C722.568 735.287 722.401 735.92 722.401 736.76V742H719.761ZM741.723 742.24C740.736 742.24 739.863 742.02 739.103 741.58C738.343 741.127 737.743 740.507 737.303 739.72C736.876 738.933 736.663 738.027 736.663 737C736.663 735.973 736.883 735.067 737.323 734.28C737.776 733.493 738.389 732.88 739.163 732.44C739.949 731.987 740.849 731.76 741.863 731.76C742.743 731.76 743.549 731.993 744.283 732.46C745.029 732.913 745.623 733.587 746.062 734.48C746.516 735.36 746.743 736.433 746.743 737.7H739.163L739.403 737.46C739.403 737.953 739.523 738.387 739.763 738.76C740.016 739.12 740.336 739.4 740.723 739.6C741.123 739.787 741.549 739.88 742.003 739.88C742.549 739.88 742.996 739.767 743.343 739.54C743.689 739.3 743.956 738.993 744.143 738.62L746.503 739.54C746.223 740.1 745.856 740.587 745.403 741C744.963 741.4 744.436 741.707 743.823 741.92C743.209 742.133 742.509 742.24 741.723 742.24ZM739.543 735.98L739.303 735.74H744.123L743.903 735.98C743.903 735.5 743.789 735.12 743.563 734.84C743.336 734.547 743.056 734.333 742.723 734.2C742.403 734.067 742.089 734 741.783 734C741.476 734 741.149 734.067 740.803 734.2C740.456 734.333 740.156 734.547 739.903 734.84C739.663 735.12 739.543 735.5 739.543 735.98Z" fill="#1E7594"/>
</svg>
